Jump_normalized_Motion_pl05
version=1
nRows=16
nColumns=43
inDegrees=yes
endheader
time		pelvis_tilt		pelvis_list		pelvis_rotation		pelvis_tx		pelvis_ty		pelvis_tz		hip_flexion_r		hip_adduction_r		hip_rotation_r		knee_angle_r		ankle_angle_r		subtalar_angle_r		mtp_angle_r		hip_flexion_l		hip_adduction_l		hip_rotation_l		knee_angle_l		ankle_angle_l		subtalar_angle_l		mtp_angle_l		lumbar_extension		lumbar_bending		lumbar_rotation		neck_flexion		neck_lateral_bending		neck_rotation		arm_flex_r		arm_add_r		arm_rot_r		elbow_flex_r		pro_sup_r		wrist_flex_r		wrist_dev_r		hand_finger_flex_r		arm_flex_l		arm_add_l		arm_rot_l		elbow_flex_l		pro_sup_l		wrist_flex_l		wrist_dev_l		hand_finger_flex_l		
2.915833		0.320810		-23.690023		90.173311		0.001607		1.645383		1.499701		78.689327		-9.499026		15.271758		-134.930870		6.390831		17.052245		22.981318		70.106902		-12.430855		9.505389		-134.950778		15.810466		19.047142		40.974444		-35.289334		-2.552838		-1.123598		30.547357		9.161384		-0.843579		118.949657		-4.865476		26.539005		49.982139		81.031749		-2.057934		-8.053426		-33.026768		121.109245		-5.029464		25.348685		47.192115		101.491230		-14.304170		-5.054466		-18.287924		
2.918687		0.433406		-23.445170		90.312352		0.001401		1.647266		1.494197		77.843301		-9.545567		15.018274		-134.600930		5.455669		16.702029		23.038589		69.100965		-12.541050		9.409925		-134.546341		15.450605		19.008600		41.151205		-35.143159		-2.410468		-1.054926		29.821196		9.160635		-0.859280		118.779250		-4.814653		26.507491		49.694275		81.330254		-2.107583		-8.564162		-32.158380		120.755561		-4.953463		24.678783		47.119530		102.604960		-14.529309		-5.499062		-17.517274		
2.921540		0.592214		-23.062522		90.452340		0.001267		1.649337		1.488706		76.860175		-9.524243		14.700762		-134.232824		4.253516		16.231553		23.116495		67.981278		-12.668455		9.388871		-134.151359		14.989837		18.958520		41.395491		-35.135030		-2.238728		-0.972606		28.918645		9.124393		-0.853534		118.611246		-4.665635		26.450938		49.226384		81.595669		-2.164160		-9.112626		-31.014565		120.382649		-4.736494		23.740556		46.888056		104.036340		-14.839227		-5.938454		-16.404343		
2.924394		0.825623		-22.675397		90.589570		0.001186		1.651429		1.483062		75.854300		-9.453507		14.265910		-133.834342		3.185082		15.588004		23.206680		66.870786		-12.882335		9.426118		-133.756905		14.581117		18.895465		41.694738		-35.138198		-2.012497		-0.786606		28.187190		9.056521		-0.823249		118.392094		-4.655886		26.544154		48.894847		81.681092		-2.083760		-9.717327		-29.818112		119.929402		-4.556364		22.794078		46.761883		105.656538		-15.246788		-6.467894		-14.918208		
2.927247		0.977616		-22.400384		90.711314		0.001082		1.653140		1.477431		75.036447		-9.417348		13.943689		-133.482501		2.038099		15.215433		23.256813		65.901903		-13.043881		9.399680		-133.384181		14.091028		18.878807		41.879746		-34.963603		-1.860160		-0.685321		27.226057		9.073688		-0.883350		118.026858		-4.636333		26.584151		48.677116		81.570941		-2.020213		-9.974956		-29.151734		119.412076		-4.495826		22.174940		46.751807		106.534115		-15.636429		-6.818625		-14.055490		
2.930101		1.236627		-21.976849		90.791331		0.001118		1.655246		1.471712		74.044593		-9.250522		13.445733		-133.045227		0.816632		14.255079		23.329306		64.786827		-13.355122		9.433085		-133.004210		13.610304		18.691665		42.178487		-34.998515		-1.651061		-0.428380		26.503676		8.991201		-0.782213		117.755359		-4.710890		26.761754		48.385133		81.519225		-1.779154		-10.593666		-28.049562		118.895514		-4.331318		21.332403		46.609067		108.166661		-16.265147		-7.478772		-12.558560		
2.932955		1.371380		-21.694440		90.871786		0.000970		1.656881		1.466010		73.286385		-9.209911		13.117049		-132.664734		-0.435423		13.780561		23.361620		63.845951		-13.532263		9.359943		-132.653839		13.041550		18.598888		42.354156		-34.807667		-1.524463		-0.286749		25.449044		9.046590		-0.842873		117.318401		-4.733293		26.792873		48.209094		81.366443		-1.704476		-10.732831		-27.423931		118.269305		-4.270008		20.803328		46.630774		108.890032		-16.775387		-7.782313		-11.808551		
2.935808		1.523383		-21.352405		90.931718		0.001061		1.658648		1.460188		72.444403		-9.042081		12.751353		-132.286286		-1.714306		12.924704		23.395041		62.850750		-13.763275		9.328620		-132.275668		12.475545		18.347478		42.581466		-34.707727		-1.422805		-0.120958		24.593683		9.053161		-0.814183		116.908540		-4.850933		26.919415		48.051595		81.363344		-1.583293		-11.091862		-26.490043		117.625485		-4.181039		20.232734		46.623425		109.978994		-17.423867		-8.246501		-10.851829		
2.938662		1.613708		-21.046155		90.973721		0.000974		1.660254		1.454358		71.711554		-8.956972		12.460769		-131.910314		-3.033215		12.206254		23.401224		61.898832		-13.908483		9.223804		-131.919359		11.844671		18.086992		42.743933		-34.542460		-1.355289		0.004972		23.618880		9.129646		-0.840946		116.431944		-4.942654		26.993540		47.929083		81.390674		-1.585124		-11.298863		-25.685243		116.935369		-4.145189		19.812139		46.665824		110.685742		-18.005387		-8.516809		-10.309575		
2.941515		1.684654		-20.721294		91.017835		0.000879		1.661913		1.448490		70.977035		-8.884859		12.168878		-131.513276		-4.415371		11.407006		23.397955		60.953715		-14.041977		9.093530		-131.556582		11.173030		17.768514		42.907316		-34.400957		-1.304360		0.132188		22.649301		9.205772		-0.849643		115.947010		-5.079362		27.096042		47.810885		81.489252		-1.633060		-11.531224		-24.792062		116.219523		-4.099318		19.445906		46.706041		111.396519		-18.595633		-8.735553		-9.832472		
2.944369		1.716915		-20.404920		91.060037		0.000649		1.663509		1.442587		70.288252		-8.880808		11.919058		-131.105362		-5.900124		10.646655		23.376625		60.028984		-14.117386		8.915023		-131.192448		10.420513		17.407076		43.008083		-34.235670		-1.271116		0.228356		21.593573		9.313509		-0.873601		115.412807		-5.221761		27.197119		47.700291		81.599919		-1.716626		-11.712132		-24.080728		115.468419		-4.099777		19.216796		46.781454		111.857051		-19.117955		-8.804858		-9.690329		
2.947222		1.736537		-20.061662		91.108732		0.000496		1.665125		1.436614		69.585445		-8.841938		11.672871		-130.698203		-7.455598		9.755979		23.343451		59.089479		-14.174349		8.746695		-130.815855		9.629429		16.955835		43.101000		-34.108372		-1.252234		0.292974		20.601263		9.417559		-0.873193		114.855953		-5.393550		27.340032		47.613520		81.774843		-1.811812		-11.946453		-23.275037		114.712468		-4.143918		19.069197		46.876316		112.358949		-19.627140		-8.825589		-9.644894		
2.950076		1.744548		-19.706721		91.168751		0.000361		1.666733		1.430604		68.890413		-8.803645		11.422289		-130.270102		-9.072672		8.864260		23.300702		58.168745		-14.197017		8.586927		-130.442660		8.801752		16.468799		43.180216		-33.994114		-1.244584		0.314372		19.623934		9.515401		-0.861520		114.262640		-5.588908		27.517701		47.554994		81.963376		-1.908849		-12.168860		-22.465748		113.939086		-4.245434		19.022886		47.004635		112.815238		-20.074356		-8.762722		-9.718618		
2.952929		1.768063		-19.299911		91.194437		0.000230		1.668509		1.424592		68.175849		-8.794644		11.114538		-129.769774		-10.790754		7.587172		23.220389		57.201780		-14.278627		8.392618		-130.038056		7.907904		15.750007		43.321729		-33.982225		-1.220636		0.366304		18.868608		9.598603		-0.745260		113.692723		-5.744528		27.733230		47.473428		82.234306		-2.175073		-12.470858		-21.099028		113.219965		-4.460660		19.113082		47.167486		113.506589		-20.495140		-8.614742		-9.928430		
2.955783		1.759724		-18.991625		91.291460		-0.000102		1.669933		1.418509		67.598688		-8.876681		10.867756		-129.302758		-12.401138		7.125502		23.180072		56.376521		-14.237728		8.228375		-129.662253		7.064875		15.410570		43.359870		-33.795577		-1.171970		0.376059		17.791666		9.690844		-0.781025		113.001454		-5.980214		27.963062		47.492339		82.342711		-2.177394		-12.545406		-20.672480		112.368901		-4.655309		19.223224		47.348723		113.699143		-20.745121		-8.451345		-10.151410		
2.958636		1.764913		-18.556568		91.339274		-0.000215		1.671475		1.412589		66.954498		-8.851063		10.590252		-128.830598		-14.554552		5.879994		23.094070		55.462300		-14.256098		8.056739		-129.290493		5.881674		14.510194		43.445462		-33.780479		-1.149435		0.364696		16.825926		9.766400		-0.624418		112.421223		-6.045722		28.153693		47.263085		82.547382		-2.330061		-12.647194		-19.872378		111.664830		-4.891618		19.435967		47.432804		114.161005		-21.043925		-7.989338		-10.717990		
